<svg viewBox="0 0 512 512" xmlns="http://www.w3.org/2000/svg" xmlns:xlink="http://www.w3.org/1999/xlink"><clipPath id="a"><path d="m64 64h384v192h-120a72 72 0 0 0 -72 72v120h-192z"/></clipPath><symbol id="b" viewBox="0 0 375 375"><circle cx="187.5" cy="187.5" fill="none" r="84" stroke="#000" stroke-miterlimit="10" stroke-width="15"/><path d="m187.5 57.2v-49.7m0 360v-49.7m92.2-222.5 35-35m-254.4 254.4 35.1-35.1m0-184.4-35-35m254.5 254.5-35.1-35.1m-222.6-92.1h-49.7m360 0h-49.7" fill="none" stroke="#000" stroke-linecap="round" stroke-miterlimit="10" stroke-width="15"/></symbol><g clip-path="url(#a)"><use height="375" transform="translate(68.5 68.5)" width="375" xlink:href="#b"/><path d="m254 338v-10a74 74 0 0 1 74-74h10" fill="none" stroke="#000" stroke-miterlimit="10" stroke-width="15"/></g><path d="m337.7 388c-9.6 0-17-2.3-22.1-6.8-5.2-4.5-7.8-11-7.8-19.4v-45.8h18.3v46c0 7.3 4 11 11.7 11s11.6-3.7 11.6-11v-46h18.3v45.8c0 8.5-2.6 15-7.7 19.5-5.2 4.5-12.6 6.7-22.3 6.7zm75.7-43.5 8.2-28.5h18.6l-22.6 69.8h-19.4l-22.5-69.8h18.8l8.3 28.4 5.3 22z"/></svg>